<?xml version="1.0" ?><!DOCTYPE svg  PUBLIC '-//W3C//DTD SVG 1.1//EN'  'http://www.w3.org/Graphics/SVG/1.1/DTD/svg11.dtd'><svg height="512px" style="enable-background:new 0 0 512 512;" version="1.1" viewBox="0 0 512 512" width="512px" xml:space="preserve" xmlns="http://www.w3.org/2000/svg" xmlns:xlink="http://www.w3.org/1999/xlink"><g id="_x33__x2C__weight_x2C__baby_x2C__New_born_x2C__scales_x2C__kid"><g><path d="M116.097,218.025l279.805-0.039c0.035,0,0.035,0,0.074,0h17.597    c7.001,0,13.367-2.844,18.011-7.451c4.643-4.643,7.489-11.044,7.489-18.047v-25.496H72.927v25.496    c0,7.003,2.846,13.404,7.489,18.011c4.604,4.644,11.006,7.487,18.007,7.487L116.097,218.025z M258.302,354.688    c-0.522-0.524-1.196-0.825-1.982-0.825c-0.751,0-1.463,0.301-1.948,0.787c-0.488,0.523-0.786,1.236-0.786,1.984    c0,0.749,0.298,1.459,0.786,1.947c0.484,0.486,1.197,0.786,1.948,0.786c0.786,0,1.46-0.3,1.944-0.786    c0.526-0.488,0.824-1.198,0.824-1.947C259.088,355.887,258.79,355.174,258.302,354.688z M256.319,344.092    c3.442,0,6.587,1.423,8.833,3.669l0.189,0.188c2.169,2.246,3.521,5.317,3.521,8.687c0,3.444-1.425,6.552-3.671,8.836l-0.187,0.15    c-2.246,2.172-5.316,3.52-8.686,3.52c-3.408,0-6.556-1.385-8.837-3.67l-0.151-0.148c-2.172-2.285-3.52-5.316-3.52-8.688    c0-3.445,1.386-6.59,3.671-8.836l0.186-0.188C249.915,345.439,252.985,344.092,256.319,344.092z M261.222,309.72    c0,2.696-2.207,4.906-4.902,4.906c-2.699,0-4.868-2.21-4.868-4.906v-30.364c-10.486,0.635-20.408,3.332-29.318,7.749l0.039,0.075    l7.598,13.18c1.348,2.322,0.562,5.317-1.758,6.628c-2.358,1.348-5.317,0.562-6.665-1.76l-7.602-13.144l-0.074-0.148    c-4.345,2.883-8.349,6.178-12.02,9.848c-3.555,3.52-6.777,7.413-9.546,11.605l0.186,0.112l13.178,7.602    c2.323,1.348,3.109,4.343,1.762,6.665c-1.348,2.321-4.306,3.107-6.665,1.76l-13.143-7.602l-0.225-0.112    c-4.492,8.949-7.265,18.872-7.938,29.392h0.337h30.368c2.695,0,4.868,2.209,4.868,4.906c0,2.695-2.172,4.866-4.868,4.866h-30.368    h-0.337c0.674,10.521,3.446,20.481,7.938,29.431l0.225-0.15l13.143-7.601c2.358-1.348,5.317-0.562,6.665,1.761    c1.348,2.321,0.562,5.316-1.762,6.664l-13.178,7.6l-0.225,0.113c2.808,4.193,6.029,8.087,9.584,11.645    c3.632,3.669,7.675,6.964,12.02,9.811l0.074-0.149l7.602-13.143c1.348-2.322,4.306-3.108,6.665-1.761    c2.32,1.312,3.106,4.307,1.758,6.628l-7.598,13.18l-0.077,0.112c8.949,4.38,18.871,7.114,29.357,7.713v-30.364    c0-2.697,2.169-4.907,4.868-4.907c2.695,0,4.902,2.21,4.902,4.907v30.327c10.409-0.711,20.296-3.481,29.168-7.938l-7.489-13.029    c-1.348-2.321-0.562-5.316,1.762-6.628c2.319-1.348,5.316-0.562,6.664,1.761l7.489,12.955c4.155-2.771,8.013-5.954,11.532-9.474    c3.629-3.631,6.89-7.637,9.732-11.906l-12.88-7.451c-2.32-1.348-3.145-4.343-1.797-6.664c1.348-2.322,4.345-3.108,6.665-1.761    l12.879,7.415c4.384-8.875,7.114-18.686,7.753-29.095h-29.992c-2.695,0-4.903-2.171-4.903-4.866c0-2.697,2.208-4.906,4.903-4.906    H332.7c-0.639-10.407-3.369-20.218-7.753-29.092l-12.879,7.414c-2.32,1.348-5.317,0.562-6.665-1.76    c-1.348-2.322-0.523-5.317,1.797-6.665l12.88-7.45c-2.843-4.307-6.104-8.275-9.732-11.908c-3.52-3.519-7.377-6.701-11.532-9.473    l-7.489,12.956c-1.348,2.321-4.345,3.107-6.664,1.76c-2.323-1.311-3.109-4.306-1.762-6.628l7.489-13.03    c-8.872-4.456-18.759-7.227-29.168-7.9V309.72z M233.441,134.902c-5.991,0.375-6.514-8.873-0.449-9.135    c0.074,0,32.799-0.898,35.158-12.243c4.005-19.21,23.212-16.813,23.289-16.813c5.542,0.562,5.465,9.511-1.123,9.136    C267.174,104.463,293.685,131.309,233.441,134.902z M220.522,70.315c-13.929-4.343-19.021-20.706-21.004-22.615    c-7.226-3.108-41.56-15.39-61.03,22.466c-21.755,42.422,36.018,65.711,40.026,60.469c10.82-14.154,38.376,18.609,42.795,24.037    l3.559,1.872h53.804c0.225,0,0.449,0,0.709,0h0.264h5.805c35.046-1.685,53.468-33.81,53.541-33.884    c3.071-5.168,10.933-0.488,7.864,4.717c-0.038,0.074-10.262,17.822-30.065,29.167h17.597l1.836-1.348    c36.766-28.567,45.304-85.218,9.061-80.838c-31.153,3.783-52.196-23.326-52.231-23.438c-3.598-4.904,3.404-10.297,7.261-5.578    c29.094,35.531,54.556,7.038,71.215,29.99c12.021-6.328,4.868-37.479,3.223-37.367l-1.313,2.321    c-14.6,26.885-34.744,9.96-34.822,9.885c-1.832-1.946-24.896-40.587-50.544-16.024c-25.573,24.524,38.714,65,38.864,65.111    c5.128,3.296,0.113,10.971-4.906,7.713c-0.186-0.113-57.921-36.395-48.15-67.358c-2.621,1.386-4.678,5.542-2.396,16.55    c1.348,6.402-11.869,7.488-9.81,28.269c0.713,6.964-2.134,11.458-8.422,7.899c-2.246-1.271-7.079,2.697-9.1,4.494    c-0.035,0.076-13.852,31.525-21.864,22.728c-6.103-6.739,15.312-15.987,12.578-27.259c-0.186-0.822-0.523-1.684-1.046-2.545    C218.389,80.837,232.542,74.061,220.522,70.315z M393.506,227.197H118.494c-8.911,13.105-15.989,27.559-20.857,42.984    l-0.035,0.188c-4.945,15.65-7.64,32.313-7.64,49.61v166.02h31.077V312.378c0-2.508,2.06-4.604,4.608-4.604    c2.544,0,4.604,2.097,4.604,4.604v173.621h251.498v-70.99c0-2.51,2.06-4.606,4.604-4.606c2.548,0,4.604,2.097,4.604,4.606v70.99    h31.041v-166.02c0-17.298-2.66-33.96-7.602-49.61C409.53,254.867,402.416,240.377,393.506,227.197z" style="fill-rule:evenodd;clip-rule:evenodd;"/></g></g><g id="Layer_1"/></svg>